# xmcd
#
# Track frame offsets:
#	150
#	23037
#	48628
#	66845
#	86648
#	106309
#	123923
#	143344
#	159388
#	184928
#	202969
#	220671
#	242432
#	262562
#	283532
#
# Disc length: 4069 seconds
#
# Revision: 1
# Processed by: cddbd v1.5.2PL0 Copyright (c) Steve Scherf et al.
# Submitted via: EZCDAudioConverter 7.2.0.1
#
DISCID=c20fe30f
DTITLE=Various Artist - '80s Soul | Gold [CD2]
DYEAR=2006
DGENRE=R&B, Soul
TTITLE0=Commodores - Nightshift
TTITLE1=Kool and The Gang - Cherish
TTITLE2=Ready For The World - Oh Sheila
TTITLE3=Atlantic Starr - Secret Lovers
TTITLE4=René and Angela - Your Smile
TTITLE5=Stephanie Mills - I Have Learned To Respect The Power Of Love
TTITLE6=Jeffrey Osborne - You Should Be Mine (The Woo Woo Song)
TTITLE7=Gwen Guthrie - Ain't Nothin' Goin' On But The Rent
TTITLE8=Cameo - Candy
TTITLE9=Jody Watley - Looking For A New Love
TTITLE10=Pebbles - Mercedes Boy
TTITLE11=Tony! Toni! Toné! - Little Walter
TTITLE12=Vanessa Williams - The Right Stuff
TTITLE13=Bobby Brown - My Prerogative
TTITLE14=Guy - I Like
EXTD=
EXTT0=
EXTT1=
EXTT2=
EXTT3=
EXTT4=
EXTT5=
EXTT6=
EXTT7=
EXTT8=
EXTT9=
EXTT10=
EXTT11=
EXTT12=
EXTT13=
EXTT14=
PLAYORDER=
